<mxfile host="Electron" agent="Mozilla/5.0 (Windows NT 10.0; Win64; x64) AppleWebKit/537.36 (KHTML, like Gecko) draw.io/26.0.9 Chrome/128.0.6613.186 Electron/32.2.5 Safari/537.36" version="26.0.9">
  <diagram name="Page-1" id="Ir4CTJVgPV-6omDBYPQV">
    <mxGraphModel dx="2206" dy="1286" grid="1" gridSize="10" guides="1" tooltips="1" connect="1" arrows="1" fold="1" page="1" pageScale="1" pageWidth="850" pageHeight="1100" math="0" shadow="0">
      <root>
        <mxCell id="0" />
        <mxCell id="1" parent="0" />
        <mxCell id="7DlS5ec11CydCIvmTqB9-13" value="&lt;p style=&quot;margin:0px;margin-top:6px;text-align:center;&quot;&gt;&lt;span style=&quot;background-color: transparent; color: light-dark(rgb(0, 0, 0), rgb(255, 255, 255)); text-align: left;&quot;&gt;&lt;b&gt;main.py&lt;/b&gt;&lt;/span&gt;&lt;/p&gt;&lt;hr size=&quot;1&quot; style=&quot;border-style:solid;&quot;&gt;&lt;p style=&quot;margin:0px;margin-left:8px;&quot;&gt;+ Attribute1: Handles program flow&lt;br&gt;+ Attribute2: Calls feed_manager&lt;/p&gt;" style="align=left;overflow=fill;html=1;dropTarget=0;whiteSpace=wrap;rounded=1;sketch=1;curveFitting=1;jiggle=2;shadow=0;" vertex="1" parent="1">
          <mxGeometry x="220" y="20" width="210" height="70" as="geometry" />
        </mxCell>
        <mxCell id="7DlS5ec11CydCIvmTqB9-14" value="" style="shape=component;jettyWidth=8;jettyHeight=4;" vertex="1" parent="7DlS5ec11CydCIvmTqB9-13">
          <mxGeometry x="1" width="20" height="20" relative="1" as="geometry">
            <mxPoint x="-24" y="4" as="offset" />
          </mxGeometry>
        </mxCell>
        <mxCell id="7DlS5ec11CydCIvmTqB9-15" value="&lt;p style=&quot;margin:0px;margin-top:6px;text-align:center;&quot;&gt;&lt;b&gt;&lt;span style=&quot;background-color: transparent; color: light-dark(rgb(0, 0, 0), rgb(255, 255, 255)); text-align: left;&quot;&gt;feed_manager&lt;/span&gt;&lt;span style=&quot;background-color: transparent; color: light-dark(rgb(0, 0, 0), rgb(255, 255, 255)); text-align: left;&quot;&gt;.py&lt;/span&gt;&lt;/b&gt;&lt;/p&gt;&lt;hr size=&quot;1&quot; style=&quot;border-style:solid;&quot;&gt;&lt;p style=&quot;margin:0px;margin-left:8px;&quot;&gt;+ Attribute1: Manages feeds and updates&lt;br&gt;+ Attribute2: Uses parser&lt;/p&gt;" style="align=left;overflow=fill;html=1;dropTarget=0;whiteSpace=wrap;sketch=1;curveFitting=1;jiggle=2;shadow=0;rounded=1;" vertex="1" parent="1">
          <mxGeometry x="210" y="190" width="230" height="70" as="geometry" />
        </mxCell>
        <mxCell id="7DlS5ec11CydCIvmTqB9-16" value="" style="shape=component;jettyWidth=8;jettyHeight=4;" vertex="1" parent="7DlS5ec11CydCIvmTqB9-15">
          <mxGeometry x="1" width="20" height="20" relative="1" as="geometry">
            <mxPoint x="-24" y="4" as="offset" />
          </mxGeometry>
        </mxCell>
        <mxCell id="7DlS5ec11CydCIvmTqB9-17" value="&lt;p style=&quot;margin:0px;margin-top:6px;text-align:center;&quot;&gt;&lt;b&gt;&lt;span style=&quot;background-color: transparent; color: light-dark(rgb(0, 0, 0), rgb(255, 255, 255)); text-align: left;&quot;&gt;parser&lt;/span&gt;&lt;span style=&quot;background-color: transparent; color: light-dark(rgb(0, 0, 0), rgb(255, 255, 255)); text-align: left;&quot;&gt;.py&lt;/span&gt;&lt;/b&gt;&lt;/p&gt;&lt;hr size=&quot;1&quot; style=&quot;border-style:solid;&quot;&gt;&lt;p style=&quot;margin:0px;margin-left:8px;&quot;&gt;+ Attribute1: Parses RSS feed entries&lt;br&gt;+ Attribute2: Returns parsed data&lt;/p&gt;" style="align=left;overflow=fill;html=1;dropTarget=0;whiteSpace=wrap;rounded=1;sketch=1;curveFitting=1;jiggle=2;" vertex="1" parent="1">
          <mxGeometry x="530" y="190" width="210" height="70" as="geometry" />
        </mxCell>
        <mxCell id="7DlS5ec11CydCIvmTqB9-18" value="" style="shape=component;jettyWidth=8;jettyHeight=4;" vertex="1" parent="7DlS5ec11CydCIvmTqB9-17">
          <mxGeometry x="1" width="20" height="20" relative="1" as="geometry">
            <mxPoint x="-24" y="4" as="offset" />
          </mxGeometry>
        </mxCell>
        <mxCell id="7DlS5ec11CydCIvmTqB9-21" value="&lt;p style=&quot;margin:0px;margin-top:6px;text-align:center;&quot;&gt;&lt;span style=&quot;background-color: transparent; color: light-dark(rgb(0, 0, 0), rgb(255, 255, 255)); text-align: left;&quot;&gt;&lt;b&gt;feeds.json&lt;/b&gt;&lt;/span&gt;&lt;/p&gt;&lt;hr size=&quot;1&quot; style=&quot;border-style:solid;&quot;&gt;&lt;p style=&quot;margin:0px;margin-left:8px;&quot;&gt;+ Attribute1: Stores RSS feed URLs&lt;br&gt;&lt;br&gt;&lt;/p&gt;" style="align=left;overflow=fill;html=1;dropTarget=0;whiteSpace=wrap;sketch=1;curveFitting=1;jiggle=2;rounded=1;" vertex="1" parent="1">
          <mxGeometry x="150" y="340" width="180" height="50" as="geometry" />
        </mxCell>
        <mxCell id="7DlS5ec11CydCIvmTqB9-22" value="" style="shape=component;jettyWidth=8;jettyHeight=4;" vertex="1" parent="7DlS5ec11CydCIvmTqB9-21">
          <mxGeometry x="1" width="20" height="20" relative="1" as="geometry">
            <mxPoint x="-24" y="4" as="offset" />
          </mxGeometry>
        </mxCell>
        <mxCell id="7DlS5ec11CydCIvmTqB9-23" value="READS" style="endArrow=open;endSize=12;dashed=1;html=1;rounded=0;exitX=0.428;exitY=1.004;exitDx=0;exitDy=0;entryX=0.5;entryY=0;entryDx=0;entryDy=0;exitPerimeter=0;" edge="1" parent="1" source="7DlS5ec11CydCIvmTqB9-15" target="7DlS5ec11CydCIvmTqB9-21">
          <mxGeometry width="160" relative="1" as="geometry">
            <mxPoint x="130" y="250" as="sourcePoint" />
            <mxPoint x="290" y="250" as="targetPoint" />
          </mxGeometry>
        </mxCell>
        <mxCell id="7DlS5ec11CydCIvmTqB9-24" value="&lt;p style=&quot;margin:0px;margin-top:6px;text-align:center;&quot;&gt;&lt;span style=&quot;background-color: transparent; color: light-dark(rgb(0, 0, 0), rgb(255, 255, 255)); text-align: left;&quot;&gt;&lt;b&gt;updates.csv&lt;/b&gt;&lt;/span&gt;&lt;/p&gt;&lt;hr size=&quot;1&quot; style=&quot;border-style:solid;&quot;&gt;&lt;p style=&quot;margin:0px;margin-left:8px;&quot;&gt;+ Attribute1: Logs updates&lt;br&gt;&lt;br&gt;&lt;/p&gt;" style="align=left;overflow=fill;html=1;dropTarget=0;whiteSpace=wrap;sketch=1;curveFitting=1;jiggle=2;shadow=0;rounded=1;" vertex="1" parent="1">
          <mxGeometry x="350" y="340" width="150" height="50" as="geometry" />
        </mxCell>
        <mxCell id="7DlS5ec11CydCIvmTqB9-25" value="" style="shape=component;jettyWidth=8;jettyHeight=4;" vertex="1" parent="7DlS5ec11CydCIvmTqB9-24">
          <mxGeometry x="1" width="20" height="20" relative="1" as="geometry">
            <mxPoint x="-24" y="4" as="offset" />
          </mxGeometry>
        </mxCell>
        <mxCell id="7DlS5ec11CydCIvmTqB9-26" value="SAVE" style="html=1;verticalAlign=bottom;endArrow=block;curved=0;rounded=0;exitX=0.579;exitY=0.987;exitDx=0;exitDy=0;exitPerimeter=0;entryX=0.591;entryY=0.054;entryDx=0;entryDy=0;entryPerimeter=0;" edge="1" parent="1" source="7DlS5ec11CydCIvmTqB9-15" target="7DlS5ec11CydCIvmTqB9-24">
          <mxGeometry width="80" relative="1" as="geometry">
            <mxPoint x="370" y="270" as="sourcePoint" />
            <mxPoint x="270" y="370" as="targetPoint" />
          </mxGeometry>
        </mxCell>
        <mxCell id="7DlS5ec11CydCIvmTqB9-27" value="CALL" style="endArrow=open;endSize=12;dashed=1;html=1;rounded=0;exitX=0.5;exitY=1;exitDx=0;exitDy=0;entryX=0.49;entryY=-0.029;entryDx=0;entryDy=0;entryPerimeter=0;" edge="1" parent="1" source="7DlS5ec11CydCIvmTqB9-13" target="7DlS5ec11CydCIvmTqB9-15">
          <mxGeometry width="160" relative="1" as="geometry">
            <mxPoint x="320" y="100" as="sourcePoint" />
            <mxPoint x="426" y="197" as="targetPoint" />
          </mxGeometry>
        </mxCell>
        <mxCell id="7DlS5ec11CydCIvmTqB9-28" value="USE" style="endArrow=open;endSize=12;dashed=1;html=1;rounded=0;exitX=1.007;exitY=0.457;exitDx=0;exitDy=0;exitPerimeter=0;entryX=-0.014;entryY=0.481;entryDx=0;entryDy=0;entryPerimeter=0;" edge="1" parent="1" source="7DlS5ec11CydCIvmTqB9-15" target="7DlS5ec11CydCIvmTqB9-17">
          <mxGeometry width="160" relative="1" as="geometry">
            <mxPoint x="509" y="230" as="sourcePoint" />
            <mxPoint x="425" y="326" as="targetPoint" />
          </mxGeometry>
        </mxCell>
      </root>
    </mxGraphModel>
  </diagram>
</mxfile>
